<?xml version="1.0" standalone="no"?>
<!DOCTYPE svg PUBLIC "-//W3C//DTD SVG 20010904//EN"
 "http://www.w3.org/TR/2001/REC-SVG-20010904/DTD/svg10.dtd">
<svg version="1.0" xmlns="http://www.w3.org/2000/svg"
 width="500.000000pt" height="500.000000pt" viewBox="0 0 500.000000 500.000000"
 preserveAspectRatio="xMidYMid meet">

<g transform="translate(0.000000,500.000000) scale(0.100000,-0.100000)"
fill="#000000" stroke="none">
<path d="M0 2500 l0 -2500 2500 0 2500 0 0 2500 0 2500 -2500 0 -2500 0 0
-2500z m1210 150 l0 -1760 700 0 700 0 0 -205 0 -205 -905 0 -905 0 0 1958 c0
1077 3 1962 7 1965 3 4 96 7 205 7 l198 0 0 -1760z m2265 886 c28 -13 63 -37
78 -55 108 -128 -21 -407 -346 -747 l-115 -120 -16 -110 c-8 -60 -18 -136 -21
-169 l-7 -60 64 125 c154 300 342 509 461 510 63 0 122 -53 138 -126 21 -94
-22 -236 -103 -335 -39 -47 -136 -123 -195 -152 l-42 -20 25 -36 c37 -54 62
-146 83 -311 26 -192 40 -220 110 -220 32 0 99 54 132 106 l21 35 -25 47 c-58
106 -58 259 -2 476 31 118 91 285 111 306 20 21 88 19 113 -4 28 -25 27 -46
-13 -259 -19 -100 -37 -204 -40 -232 l-6 -50 16 35 c9 19 38 93 63 164 50 138
68 163 98 133 17 -17 16 -24 -31 -162 -27 -80 -71 -196 -98 -258 -55 -121 -58
-140 -32 -168 27 -29 54 -23 98 24 96 99 232 439 326 812 35 136 49 165 84
165 52 -1 64 -33 77 -197 7 -79 8 -218 5 -326 l-7 -187 133 107 c73 58 154
126 179 151 50 47 82 53 87 14 4 -28 -46 -77 -251 -248 -141 -118 -153 -130
-159 -168 -4 -23 -18 -113 -32 -201 -41 -267 -126 -495 -228 -610 -57 -64
-131 -105 -189 -105 -55 0 -127 29 -169 69 -132 125 -33 350 307 702 152 157
142 132 162 371 26 293 29 286 -39 83 -81 -242 -162 -406 -237 -483 -68 -69
-101 -79 -183 -57 -53 14 -55 13 -70 -8 -8 -12 -37 -45 -63 -74 -63 -67 -116
-88 -194 -79 -87 10 -132 40 -168 110 l-29 59 -1 196 c0 219 -3 230 -66 255
-57 23 -58 66 -2 66 16 0 49 25 101 78 184 183 299 396 232 432 -30 16 -96
-17 -151 -77 -115 -123 -198 -258 -259 -423 -23 -63 -69 -169 -101 -234 -40
-82 -59 -132 -59 -157 0 -76 -40 -116 -90 -89 -17 9 -25 9 -39 -4 -79 -71
-241 -57 -326 29 -91 90 -102 239 -46 599 41 262 40 345 -3 383 -53 45 -123
10 -203 -103 -60 -84 -143 -255 -143 -296 0 -38 -62 -216 -122 -353 -22 -49
-49 -121 -60 -160 -24 -82 -41 -105 -79 -105 -16 0 -44 -11 -64 -24 -74 -51
-198 -43 -278 18 -90 69 -129 217 -107 409 13 115 56 292 91 382 22 54 28 61
61 69 29 7 42 6 63 -8 14 -9 29 -24 32 -33 3 -8 -7 -111 -22 -227 -36 -270
-40 -461 -10 -521 17 -34 25 -40 55 -43 46 -3 100 29 100 60 2 134 22 546 29
589 25 148 45 179 116 179 54 0 89 -15 105 -45 10 -18 7 -40 -14 -125 -14 -57
-25 -105 -23 -106 2 -2 22 41 45 94 92 212 204 362 306 412 39 18 58 22 102
17 104 -11 171 -77 198 -196 21 -91 20 -159 -4 -366 -30 -260 -25 -407 17
-464 34 -45 104 -38 156 17 l25 27 5 285 c7 402 42 656 123 899 51 154 107
255 184 332 92 92 168 111 265 65z m-1686 -460 c15 -8 32 -26 39 -41 42 -92
-27 -205 -127 -205 -26 0 -56 7 -68 15 -50 35 -37 139 26 205 42 44 79 52 130
26z"/>
<path d="M3414 3460 c-54 -22 -127 -145 -191 -320 -35 -94 -115 -391 -108
-398 9 -9 180 203 257 319 141 212 175 360 91 398 -13 6 -25 11 -26 10 -1 0
-11 -4 -23 -9z"/>
<path d="M4214 1818 c-205 -212 -335 -411 -337 -514 -1 -78 66 -121 126 -81
60 39 144 210 205 417 29 99 63 230 58 230 -1 0 -25 -24 -52 -52z"/>
</g>
</svg>
